<svg width="61" height="61" viewBox="0 0 61 61" fill="none" xmlns="http://www.w3.org/2000/svg">
<g clip-path="url(#clip0_62_2726)">
<path d="M13.5119 0.273438H47.2319C54.4891 0.273438 60.3719 6.15625 60.3719 13.4134V47.1334C60.3719 54.3906 54.4891 60.2734 47.2319 60.2734H13.5119C6.25473 60.2734 0.371918 54.3906 0.371918 47.1334V13.4134C0.371918 6.15625 6.25473 0.273438 13.5119 0.273438Z" fill="url(#paint0_linear_62_2726)"/>
<path d="M19.6005 43.8224L19.6061 43.8243L17.5547 47.3774C16.8058 48.6744 15.1474 49.1188 13.8504 48.37C12.5536 47.6212 12.109 45.9627 12.8578 44.6657L14.369 42.0482L14.5141 41.7969C14.7731 41.4248 15.4122 40.7821 16.6907 40.903C16.6907 40.903 19.6994 41.2295 19.9172 42.7933C19.9172 42.7933 19.9467 43.3077 19.6005 43.8224V43.8224ZM48.6965 34.7474H42.2995C41.8638 34.7181 41.6737 34.5625 41.5987 34.472L41.594 34.4638L34.7463 22.603L34.7374 22.6089L34.3268 22.0202C33.6536 20.9908 32.5849 23.6233 32.5849 23.6233C31.3087 26.5567 32.7661 29.8916 33.274 30.8997L42.7854 47.3739C43.534 48.6707 45.1924 49.1153 46.4897 48.3662C47.7865 47.6174 48.2311 45.959 47.482 44.6619L45.1038 40.5426C45.0576 40.4427 44.9775 40.1718 45.4652 40.1706H48.6965C50.1942 40.1706 51.4083 38.9566 51.4083 37.4589C51.4083 35.9612 50.1942 34.7472 48.6965 34.7472V34.7474ZM36.2714 38.4337C36.2714 38.4337 36.6129 40.1706 35.2917 40.1706H11.6435C10.1458 40.1706 8.93176 38.9566 8.93176 37.4589C8.93176 35.9612 10.1458 34.7472 11.6435 34.7472H17.7232C18.7047 34.6905 18.9372 34.1237 18.9372 34.1237L18.9429 34.1266L26.8788 20.3809L26.8765 20.3805C27.0211 20.1149 26.9006 19.8639 26.8797 19.8243L24.2587 15.2847C23.5099 13.9879 23.9543 12.3292 25.2513 11.5806C26.5483 10.8318 28.2068 11.2759 28.9556 12.573L30.1711 14.6784L31.3844 12.5767C32.1333 11.2799 33.7917 10.8353 35.0887 11.5844C36.3858 12.3332 36.8301 13.9914 36.0813 15.2884L25.038 34.4158C24.9897 34.5323 24.975 34.7151 25.3343 34.7472H31.9352L31.9366 34.8116C31.9366 34.8116 35.7518 34.8709 36.2714 38.4337Z" fill="white"/>
</g>
<defs>
<linearGradient id="paint0_linear_62_2726" x1="30.3719" y1="0.273438" x2="30.3719" y2="60.2734" gradientUnits="userSpaceOnUse">
<stop stop-color="#17C9FB"/>
<stop offset="1" stop-color="#1A74E8"/>
</linearGradient>
<clipPath id="clip0_62_2726">
<rect width="60" height="60" fill="white" transform="translate(0.371918 0.273438)"/>
</clipPath>
</defs>
</svg>
