<svg width="61" height="71" viewBox="0 0 61 71" fill="none" xmlns="http://www.w3.org/2000/svg">
<g clip-path="url(#clip0_62_2739)">
<path d="M18.7444 0.201267C18.4009 0.203479 18.0634 0.291197 17.7623 0.456501C16.7737 1.00447 16.4112 2.27455 16.9589 3.26244L19.1909 7.29275C13.8134 10.6197 10.2502 16.3028 10.2502 22.7892V23.9943C9.21726 22.806 7.69921 22.0558 6.00304 22.0558C2.89523 22.0558 0.371948 24.5791 0.371948 27.6867V45.0325C0.371948 48.1399 2.89546 50.6634 6.00304 50.6634C7.69921 50.6634 9.21726 49.9129 10.2499 48.7246V51.1544C10.2499 54.4303 12.9305 57.1106 16.2063 57.1106H17.7176V64.8269C17.7176 67.9347 20.2411 70.458 23.3487 70.458C26.4562 70.458 28.9795 67.9345 28.9795 64.8269V57.1106H31.5942V64.8269C31.5942 67.9347 34.1177 70.458 37.2253 70.458C40.3329 70.458 42.8562 67.9345 42.8562 64.8269V57.1106H44.3677C47.6433 57.1106 50.3238 54.4303 50.3238 51.1544V48.7246C51.3565 49.9129 52.8748 50.6634 54.5709 50.6634C57.6785 50.6634 60.2018 48.1399 60.2018 45.0325V27.6867C60.2018 24.5791 57.6785 22.0558 54.5709 22.0558C52.8748 22.0558 51.3565 22.806 50.3238 23.9943V22.9931V22.9356C50.3243 22.8747 50.3238 22.826 50.3238 22.7892C50.3238 16.304 46.7524 10.6265 41.3768 7.29931L43.6151 3.26244C44.1626 2.27455 43.8002 1.00447 42.8116 0.456501C42.5106 0.291197 42.1731 0.203479 41.8296 0.201267C41.0995 0.194235 40.383 0.579079 40.0057 1.25994L37.6652 5.48806C35.3768 4.64361 32.8868 4.18072 30.2871 4.18072C27.6898 4.18072 25.1951 4.63869 22.9085 5.4815L20.5683 1.25994C20.1907 0.579079 19.4744 0.194704 18.7444 0.201267Z" fill="white"/>
<path d="M6.00313 23.5225C3.68422 23.5225 1.83899 25.3677 1.83899 27.6866V45.0325C1.83899 47.3514 3.68422 49.1966 6.00313 49.1966C8.32204 49.1966 10.1675 47.3514 10.1675 45.0325V27.6866C10.1675 25.3677 8.32204 23.5225 6.00313 23.5225V23.5225ZM54.5713 23.5225C52.2521 23.5225 50.4069 25.3677 50.4069 27.6866V45.0325C50.4069 47.3514 52.2521 49.1966 54.5713 49.1966C56.8902 49.1966 58.7354 47.3514 58.7354 45.0325V27.6866C58.7354 25.3677 56.8902 23.5225 54.5713 23.5225V23.5225Z" fill="#A4C639"/>
<path d="M23.3489 43.3169C21.03 43.3169 19.1846 45.1621 19.1846 47.4813V64.8269C19.1846 67.1458 21.03 68.991 23.3489 68.991C25.6679 68.991 27.5131 67.1458 27.5131 64.8269V47.4813C27.5131 45.1621 25.6679 43.3169 23.3489 43.3169ZM37.2256 43.3169C34.9064 43.3169 33.0612 45.1621 33.0612 47.4813V64.8269C33.0612 67.1458 34.9064 68.991 37.2256 68.991C39.5445 68.991 41.3897 67.1458 41.3897 64.8269V47.4813C41.3897 45.1621 39.5445 43.3169 37.2256 43.3169Z" fill="#A4C639"/>
<path d="M18.757 1.66805C18.6585 1.66924 18.5619 1.69554 18.4764 1.74446C18.1795 1.90899 18.082 2.25024 18.2467 2.54789L21.1804 7.84735C15.5367 10.7841 11.7243 16.3648 11.7168 22.7698H48.857C48.8493 16.3648 45.0372 10.7838 39.3934 7.84735L42.3269 2.54813C42.4919 2.25047 42.3942 1.90899 42.0972 1.74446C42.0117 1.69551 41.9151 1.66921 41.8167 1.66805C41.6057 1.66571 41.4063 1.77118 41.2938 1.97414L38.3219 7.33078C35.8909 6.25266 33.1642 5.64727 30.2868 5.64727C27.4094 5.64727 24.6829 6.25243 22.2517 7.33078L19.2799 1.97414C19.2292 1.88012 19.1536 1.80183 19.0614 1.74785C18.9692 1.69386 18.864 1.66626 18.7572 1.66805H18.757ZM11.7168 24.2365V51.1544C11.7155 51.7444 11.8308 52.3287 12.056 52.8739C12.2811 53.4192 12.6118 53.9146 13.0289 54.3317C13.4461 54.7488 13.9415 55.0794 14.4867 55.3046C15.032 55.5297 15.6164 55.645 16.2063 55.6437H44.3676C44.9575 55.645 45.5419 55.5297 46.0872 55.3046C46.6324 55.0794 47.1279 54.7488 47.545 54.3316C47.9621 53.9145 48.2928 53.4191 48.5179 52.8738C48.7431 52.3285 48.8583 51.7441 48.857 51.1542V24.2367H11.7168V24.2365Z" fill="#A4C639"/>
<path d="M21.7159 12.8726C20.8682 12.8726 20.1663 13.5743 20.1663 14.422C20.1663 15.27 20.8682 15.9717 21.7159 15.9717C22.5639 15.9717 23.2656 15.27 23.2656 14.422C23.2656 13.5743 22.5639 12.8726 21.7159 12.8726ZM38.8577 12.8726C38.0097 12.8726 37.308 13.5743 37.308 14.422C37.308 15.27 38.0097 15.9717 38.8577 15.9717C39.7054 15.9717 40.4073 15.27 40.4073 14.422C40.4073 13.5743 39.7054 12.8726 38.8577 12.8726Z" fill="white"/>
</g>
<defs>
<clipPath id="clip0_62_2739">
<rect width="60" height="70.5469" fill="white" transform="translate(0.371948)"/>
</clipPath>
</defs>
</svg>
