<svg width="73" height="61" viewBox="0 0 73 61" fill="none" xmlns="http://www.w3.org/2000/svg">
<g clip-path="url(#clip0_62_2745)">
<path d="M36.5129 0.273438C17.1777 0.273438 2.02949 24.8734 0.596252 45.6509C6.66386 56.1813 21.2957 60.1396 36.5134 60.1396C51.7301 60.1396 66.3627 56.1813 72.4272 45.6506C70.9937 24.8734 55.8475 0.273438 36.5132 0.273438" fill="#B6DEFF"/>
<path d="M67.3747 40.7017C67.3747 40.7017 63.1043 31.469 58.7637 26.0825C54.42 20.6938 49.1155 14.8262 45.9792 14.8262C42.8445 14.8262 34.0817 30.3411 30.0617 30.3411C26.0409 30.3411 23.9513 23.3079 19.0079 23.3079C14.0626 23.3079 6.20567 40.2681 6.20567 40.2681L5.67328 43.1434C5.67328 43.1434 8.40286 55.245 36.9589 55.245C65.5161 55.245 67.7983 43.3419 67.7983 43.3419L67.375 40.7014" fill="#66CC66"/>
<path d="M30.5093 36.962C26.0744 36.962 23.8008 32.5863 22.5682 29.8851C21.4597 27.4519 21.2679 23.6102 18.1228 23.5026C18.4318 23.3801 18.7293 23.3077 19.0082 23.3077C23.9515 23.3077 26.0411 30.3409 30.062 30.3409C34.082 30.3409 42.8448 14.8257 45.9794 14.8257C46.5701 14.8257 47.2355 15.0341 47.9574 15.4048C47.4234 15.3344 46.7386 15.3834 46.211 15.9127C45.1977 16.9262 35.9997 36.962 30.5093 36.962" fill="#17AD49"/>
</g>
<defs>
<clipPath id="clip0_62_2745">
<rect width="72.1127" height="60" fill="white" transform="translate(0.371948 0.273438)"/>
</clipPath>
</defs>
</svg>
