<svg width="61" height="66" viewBox="0 0 61 66" fill="none" xmlns="http://www.w3.org/2000/svg">
<g clip-path="url(#clip0_62_2749)">
<path d="M56.2752 54.0679C55.8228 57.4298 53.5604 60.3388 50.393 61.6316C48.8415 62.2773 47.161 62.4719 45.4801 62.2773C43.8643 62.0837 42.248 61.5665 40.5676 60.5978C38.2402 59.3036 35.9131 57.3006 33.1984 54.3269C37.4649 49.0909 40.0498 44.3073 41.0199 40.0417C41.4725 38.0376 41.537 36.2275 41.3434 34.5466C41.0851 32.9308 40.5031 31.4434 39.5977 30.1509C37.5938 27.2423 34.2329 25.5613 30.4836 25.5613C26.7343 25.5613 23.3731 27.307 21.3692 30.1509C20.4638 31.4437 19.8828 32.9308 19.6238 34.5466C19.3655 36.2275 19.43 38.102 19.9473 40.042C20.9166 44.3071 23.5667 49.1556 27.7688 54.3906C25.1185 57.3651 22.7267 59.3687 20.3994 60.6618C18.7189 61.6316 17.1027 62.1489 15.4869 62.342C13.8212 62.5281 12.1352 62.3065 10.5741 61.6963C7.40656 60.4035 5.14461 57.4935 4.6918 54.1323C4.4982 52.5168 4.62735 50.901 5.27375 49.0909C5.46735 48.4441 5.79102 47.7988 6.11375 47.0226C6.56656 45.9887 7.08383 44.8891 7.60039 43.7898L7.66555 43.6614C12.1252 34.0293 16.9091 24.2041 21.8865 14.6376L22.0803 14.249C22.5976 13.2803 23.1141 12.2465 23.6319 11.2764C24.1487 10.2419 24.7304 9.27203 25.4413 8.43109C26.7988 6.87953 28.6088 6.0393 30.6127 6.0393C32.6166 6.0393 34.4265 6.87953 35.784 8.43133C36.4951 9.27203 37.0768 10.2419 37.5941 11.2766C38.1113 12.2465 38.6279 13.2803 39.1452 14.249L39.3397 14.6376C44.252 24.2685 49.0358 34.0937 53.4959 43.7259V43.7898C54.0132 44.8244 54.4653 45.9887 54.9826 47.0226C55.306 47.7988 55.629 48.4438 55.8226 49.0909C56.3398 50.7714 56.5337 52.3881 56.2754 54.0679H56.2752ZM30.4836 51.0294C26.9933 46.6344 24.7304 42.497 23.9548 39.0074C23.6321 37.5203 23.5667 36.2275 23.7613 35.0638C23.8902 34.0293 24.2785 33.1239 24.7948 32.3477C26.0232 30.6039 28.0916 29.503 30.4836 29.503C32.8754 29.503 35.0084 30.5383 36.1719 32.3477C36.6887 33.1239 37.0768 34.0293 37.2059 35.0638C37.3998 36.2275 37.3351 37.5848 37.0121 39.0074C36.2366 42.433 33.9739 46.57 30.4836 51.0294ZM59.6366 47.6685C59.3136 46.8927 58.9902 46.0527 58.6672 45.3416C58.1499 44.1787 57.6327 43.079 57.1801 42.0445L57.1154 41.9805C52.6557 32.2837 47.8719 22.4584 42.8298 12.7637L42.6362 12.3747C42.1189 11.4051 41.6016 10.3705 41.0851 9.33648C40.4382 8.17234 39.7916 6.94539 38.7577 5.78102C36.6884 3.19539 33.7156 1.77344 30.5478 1.77344C27.3158 1.77344 24.4072 3.19539 22.2737 5.65234C21.3045 6.81555 20.5934 8.04367 19.947 9.20805C19.4298 10.2419 18.9125 11.2764 18.3955 12.2465L18.2016 12.6332C13.2247 22.3293 8.37641 32.1552 3.91602 41.8513L3.85156 41.9805C3.39875 43.0143 2.88149 44.1128 2.36422 45.2772C2.01841 46.0433 1.69522 46.8194 1.39508 47.6045C0.554376 49.9956 0.296095 52.2585 0.619064 54.5852C1.33063 59.4334 4.56266 63.5064 9.02281 65.3158C10.703 66.0273 12.4484 66.3503 14.2588 66.3503C14.7758 66.3503 15.4222 66.2856 15.9395 66.2205C18.0723 65.9615 20.27 65.2518 22.4028 64.023C25.0536 62.5363 27.5748 60.4035 30.4187 57.3006C33.2626 60.4035 35.8484 62.5366 38.4341 64.023C40.5676 65.2518 42.7651 65.9615 44.8981 66.2205C45.4154 66.2856 46.0618 66.3503 46.5788 66.3503C48.3889 66.3503 50.1985 66.0273 51.8148 65.3158C56.3396 63.5064 59.507 59.369 60.218 54.5852C60.7353 52.3223 60.4763 50.061 59.6363 47.6683L59.6366 47.6685Z" fill="#E0565B"/>
</g>
<defs>
<clipPath id="clip0_62_2749">
<rect width="60.2899" height="65" fill="white" transform="translate(0.484619 0.773438)"/>
</clipPath>
</defs>
</svg>
