<svg width="151" height="61" viewBox="0 0 151 61" fill="none" xmlns="http://www.w3.org/2000/svg">
<g clip-path="url(#clip0_62_2751)">
<path d="M0.774414 0.273438V4.37451H29.9432V0.273438H0.774414ZM34.0759 0.273438V4.37451H75.6427C75.6427 4.37451 71.3968 0.273438 65.7734 0.273438H34.0759V0.273438ZM83.7969 0.273438V4.37451H108.944L107.451 0.273438H83.7969V0.273438ZM126.973 0.273438L125.481 4.37451H150.4V0.273438H126.973V0.273438ZM0.774414 8.24905V12.3501H29.9432V8.24905H0.774414ZM34.0759 8.2549V12.3501H80.4661C80.4661 12.3501 79.9244 9.19383 78.9793 8.2549H34.0759ZM83.7969 8.2549V12.3501H111.701L110.32 8.2549H83.7969ZM123.988 8.2549L122.607 12.3501H150.4V8.2549H123.988V8.2549ZM9.15685 16.2247V20.331H21.789V16.2247H9.15685ZM42.4583 16.2247V20.331H55.0905V16.2247H42.4583ZM67.3773 16.2247V20.331H80.0095C80.0095 20.331 80.8115 18.1622 80.8115 16.2244H67.3773V16.2247ZM92.1793 16.2247V20.331H114.575L113.083 16.2244H92.1793V16.2247ZM121.237 16.2247L119.738 20.3313H142.246V16.2247H121.237ZM9.15685 24.2061V28.3066H21.789V24.2061H9.15685ZM42.4583 24.2061V28.3066H74.7237C74.7237 28.3066 77.4228 26.2022 78.2827 24.2055H42.4583V24.2061ZM92.1793 24.2061V28.3066H104.811V26.0237L105.613 28.3066H128.753L129.613 26.0237V28.3066H142.246V24.2061H118.532L117.274 27.68L116.01 24.2061H92.1793ZM9.15685 32.1811V36.2822H21.789V32.1811H9.15685ZM42.4583 32.1811V36.2822H78.2827C77.4225 34.292 74.7237 32.1811 74.7237 32.1811H42.4583V32.1811ZM92.1793 32.1811V36.2822H104.811V32.1811H92.1793ZM107.106 32.1811L108.634 36.2822H125.984L127.436 32.1811H107.106ZM129.613 32.1811V36.2822H142.246V32.1811H129.613V32.1811ZM9.15685 40.1568V44.2578H21.789V40.1568H9.15685V40.1568ZM42.4583 40.1568V44.2578H55.0905V40.1568H42.4583ZM67.3773 40.1568V44.2578H80.8115C80.8115 42.3223 80.0095 40.1568 80.0095 40.1568H67.3773V40.1568ZM92.1793 40.1568V44.2578H104.811V40.1568H92.1793V40.1568ZM109.974 40.1568L111.455 44.2578H123.087L124.579 40.1568H109.974V40.1568ZM129.613 40.1568V44.2578H142.246V40.1568H129.613V40.1568ZM1.00271 48.1327V52.2393H30.1715V48.1324H1.00271V48.1327ZM34.0759 48.1327V52.2393H78.9793C79.9244 51.2989 80.4661 48.1324 80.4661 48.1324H34.0759V48.1327ZM84.0251 48.1327V52.2393H104.811V48.1324H84.0251V48.1327ZM112.849 48.1327L114.371 52.2393H120.289L121.717 48.1324H112.849V48.1327ZM129.613 48.1327V52.2393H150.628V48.1324H129.613V48.1327ZM1.00271 56.1138V60.2149H30.1715V56.1138H1.00271ZM34.0759 56.1138V60.2088H65.7734C71.3968 60.2088 75.6427 56.1135 75.6427 56.1135H34.0759V56.1138ZM84.0251 56.1138V60.2149H104.811V56.1138H84.0251ZM115.734 56.1138L117.198 60.2029L117.45 60.2088L118.936 56.1135H115.734V56.1138ZM129.613 56.1138V60.2149H150.628V56.1138H129.613Z" fill="#1F70C1"/>
</g>
<defs>
<clipPath id="clip0_62_2751">
<rect width="149.854" height="60" fill="white" transform="translate(0.774414 0.273438)"/>
</clipPath>
</defs>
</svg>
