<svg width="189" height="58" viewBox="0 0 189 58" fill="none" xmlns="http://www.w3.org/2000/svg">
<path d="M24.3766 29.375C25.6932 30.1417 26.3516 31.5 26.3516 33.45V34.3C26.3516 35.8334 25.9432 37 25.1266 37.8C24.3266 38.6 23.1599 39 21.6266 39H14.7766C14.4432 39 14.1849 38.9084 14.0016 38.725C13.8182 38.5417 13.7266 38.2834 13.7266 37.9501V23.1C13.7266 22.7667 13.8182 22.5084 14.0016 22.325C14.1849 22.1417 14.4432 22.05 14.7766 22.05H21.3016C22.6182 22.05 23.6349 22.4 24.3516 23.1C25.0682 23.8 25.4266 24.8 25.4266 26.1V26.775C25.4266 27.3084 25.3349 27.8 25.1516 28.25C24.9682 28.7 24.7099 29.075 24.3766 29.375ZM15.8266 28.775H21.6266H22.0766C22.5099 28.725 22.8266 28.525 23.0266 28.175C23.2266 27.8084 23.3266 27.3417 23.3266 26.775V26.1C23.3266 25.3834 23.1766 24.8834 22.8766 24.6C22.5766 24.3 22.0516 24.15 21.3016 24.15H15.8266V28.775ZM24.2516 33.45C24.2516 32.5167 24.0516 31.8584 23.6516 31.475C23.2516 31.075 22.5766 30.875 21.6266 30.875H15.8266V36.9H21.6266C22.5599 36.9 23.2266 36.7 23.6266 36.3C24.0432 35.9 24.2516 35.2334 24.2516 34.3V33.45Z" fill="white"/>
<path d="M43.6729 37.525C43.7395 37.675 43.7729 37.8417 43.7729 38.025C43.7729 38.425 43.5479 38.7167 43.0979 38.9C42.9479 38.9667 42.7812 39 42.5979 39C42.1979 39 41.9062 38.7751 41.7229 38.3251L40.3729 35.05H32.5979L31.2979 38.3251C31.1145 38.7751 30.8229 39 30.4229 39C30.2562 39 30.0979 38.9667 29.9479 38.9C29.4812 38.7334 29.2479 38.4417 29.2479 38.025C29.2479 37.8417 29.2812 37.675 29.3479 37.525L35.2979 22.875C35.5479 22.325 35.9395 22.05 36.4729 22.05H36.5229C37.0729 22.0834 37.4395 22.3584 37.6229 22.875L43.6729 37.525ZM33.4229 32.95H39.5229L36.3979 25.375L33.4229 32.95Z" fill="white"/>
<path d="M50.6713 39C49.9713 39 49.6213 38.6501 49.6213 37.9501V24.175H44.7713C44.0713 24.175 43.7213 23.825 43.7213 23.125C43.7213 22.425 44.0713 22.075 44.7713 22.075H56.5713C57.2713 22.075 57.6213 22.425 57.6213 23.125C57.6213 23.825 57.2713 24.175 56.5713 24.175H51.7213V37.9501C51.7213 38.2834 51.6296 38.5417 51.4463 38.725C51.263 38.9084 51.0046 39 50.6713 39Z" fill="white"/>
<path d="M66.2277 39C65.5277 39 65.1777 38.6501 65.1777 37.9501V24.175H60.3277C59.6277 24.175 59.2777 23.825 59.2777 23.125C59.2777 22.425 59.6277 22.075 60.3277 22.075H72.1277C72.8277 22.075 73.1777 22.425 73.1777 23.125C73.1777 23.825 72.8277 24.175 72.1277 24.175H67.2777V37.9501C67.2777 38.2834 67.1861 38.5417 67.0027 38.725C66.8194 38.9084 66.5611 39 66.2277 39Z" fill="white"/>
<path d="M77.7592 39C77.0592 39 76.7092 38.6501 76.7092 37.9501V23.1C76.7092 22.4 77.0592 22.05 77.7592 22.05C78.4592 22.05 78.8092 22.4 78.8092 23.1V36.9H85.7342C86.4342 36.9 86.7842 37.2501 86.7842 37.9501C86.7842 38.6501 86.4342 39 85.7342 39H77.7592Z" fill="white"/>
<path d="M100.46 36.9C100.793 36.9 101.051 36.9917 101.235 37.175C101.418 37.3584 101.51 37.6167 101.51 37.9501C101.51 38.2834 101.418 38.5417 101.235 38.725C101.051 38.9084 100.793 39 100.46 39H91.4846C91.1512 39 90.8929 38.9084 90.7096 38.725C90.5262 38.5417 90.4346 38.2834 90.4346 37.9501V23.1C90.4346 22.7667 90.5262 22.5084 90.7096 22.325C90.8929 22.1417 91.1512 22.05 91.4846 22.05H100.46C100.793 22.05 101.051 22.1417 101.235 22.325C101.418 22.5084 101.51 22.7667 101.51 23.1C101.51 23.4334 101.418 23.6917 101.235 23.875C101.051 24.0584 100.793 24.15 100.46 24.15H92.5346V29.4H97.5096C97.8429 29.4 98.1012 29.4917 98.2846 29.675C98.4679 29.8584 98.5596 30.1167 98.5596 30.45C98.5596 30.7834 98.4679 31.0417 98.2846 31.225C98.1012 31.4084 97.8429 31.5 97.5096 31.5H92.5346V36.9H100.46Z" fill="white"/>
<path d="M114.809 39C114.109 39 113.759 38.6501 113.759 37.9501V23.1C113.759 22.4 114.109 22.05 114.809 22.05C115.509 22.05 115.859 22.4 115.859 23.1V36.9H122.784C123.484 36.9 123.834 37.2501 123.834 37.9501C123.834 38.6501 123.484 39 122.784 39H114.809Z" fill="white"/>
<path d="M157.01 22.05C157.343 22.05 157.602 22.1417 157.785 22.325C157.968 22.5084 158.06 22.7667 158.06 23.1V37.9501C158.06 38.2834 157.968 38.5417 157.785 38.725C157.602 38.9084 157.343 39 157.01 39C156.81 39 156.627 38.9501 156.46 38.85C156.293 38.75 156.127 38.5917 155.96 38.375L146.435 26.1V37.9501C146.435 38.2834 146.343 38.5417 146.16 38.725C145.977 38.9084 145.718 39 145.385 39C145.052 39 144.793 38.9084 144.61 38.725C144.427 38.5417 144.335 38.2834 144.335 37.9501V23.1C144.335 22.7667 144.427 22.5084 144.61 22.325C144.793 22.1417 145.052 22.05 145.385 22.05C145.585 22.05 145.76 22.1 145.91 22.2C146.077 22.3 146.252 22.4584 146.435 22.675L155.96 34.9501V23.1C155.96 22.7667 156.052 22.5084 156.235 22.325C156.418 22.1417 156.677 22.05 157.01 22.05Z" fill="white"/>
<path d="M164.506 39C164.173 39 163.914 38.9084 163.731 38.725C163.548 38.5417 163.456 38.2834 163.456 37.9501V23.1C163.456 22.7667 163.548 22.5084 163.731 22.325C163.914 22.1417 164.173 22.05 164.506 22.05H170.531C172.714 22.05 174.314 22.5667 175.331 23.6C176.364 24.6167 176.881 26.2167 176.881 28.4V32.65C176.881 34.8334 176.364 36.4417 175.331 37.475C174.314 38.4917 172.714 39 170.531 39H164.506ZM170.531 36.9C171.614 36.9 172.456 36.7667 173.056 36.5C173.673 36.2334 174.114 35.8 174.381 35.2C174.648 34.5834 174.781 33.7334 174.781 32.65V28.4C174.781 27.3167 174.648 26.475 174.381 25.875C174.114 25.2584 173.673 24.8167 173.056 24.55C172.456 24.2834 171.614 24.15 170.531 24.15H165.556V36.9H170.531Z" fill="white"/>
<path d="M131.43 19.149L142.241 39.849L125.907 41.8393L131.43 19.149Z" fill="url(#paint0_linear_62_2401)"/>
<rect x="12" y="12" width="34" height="4" rx="2" fill="url(#paint1_linear_62_2401)"/>
<defs>
<linearGradient id="paint0_linear_62_2401" x1="131.43" y1="19.149" x2="134.955" y2="48.0758" gradientUnits="userSpaceOnUse">
<stop stop-color="#4452FE"/>
<stop offset="1" stop-color="#4452FE" stop-opacity="0"/>
</linearGradient>
<linearGradient id="paint1_linear_62_2401" x1="9" y1="9.99999" x2="52" y2="19" gradientUnits="userSpaceOnUse">
<stop stop-color="#02E4C0"/>
<stop offset="1" stop-color="#4452FE" stop-opacity="0"/>
</linearGradient>
</defs>
</svg>
