<svg width="193" height="193" viewBox="0 0 193 193" fill="none" xmlns="http://www.w3.org/2000/svg">
<path fill-rule="evenodd" clip-rule="evenodd" d="M191.421 96.2106C191.421 148.794 148.794 191.421 96.2106 191.421C43.6272 191.421 1 148.794 1 96.2106C1 43.6273 43.6272 1 96.2106 1C148.794 1 191.421 43.6273 191.421 96.2106ZM162.659 96.269C162.659 132.932 132.938 162.653 96.2748 162.653C59.6122 162.653 29.8912 132.932 29.8912 96.269C29.8912 59.6063 59.6122 29.8853 96.2748 29.8853C132.938 29.8853 162.659 59.6063 162.659 96.269Z" fill="#181818"/>
<path d="M118.172 19.9882L115.796 21.3184L114.924 24.2556L112.791 23.6227L116.199 12.1367L118.332 12.7696L116.584 18.6602L124.009 14.4539L126.405 15.1646L120.057 18.8693L123.293 26.7382L120.798 25.9983L118.172 19.9882Z" fill="#02E4C0"/>
<path fill-rule="evenodd" clip-rule="evenodd" d="M106.118 19.1316L108.139 22.902L110.519 23.1817L108.241 18.9504C109.095 18.7233 109.78 18.3213 110.298 17.7273C110.799 17.1313 111.11 16.3923 111.216 15.4914C111.317 14.6245 111.203 13.8356 110.869 13.1587C110.535 12.4818 110.015 11.921 109.29 11.4911C108.565 11.0612 107.684 10.7854 106.647 10.6635L101.752 10.0881L100.353 21.987L102.563 22.2467L102.971 18.7791L105.657 19.0947C105.861 19.1187 106.014 19.1367 106.118 19.1316ZM108.447 13.391C108.892 13.8569 109.079 14.4648 108.989 15.2297C108.899 15.9946 108.576 16.5426 108.035 16.8927C107.492 17.2597 106.737 17.3778 105.768 17.2639L103.185 16.9602L103.742 12.2177L106.326 12.5213C107.295 12.6352 108.002 12.9251 108.447 13.391Z" fill="#02E4C0"/>
<path fill-rule="evenodd" clip-rule="evenodd" d="M91.5354 22.4318C90.3232 22.5175 89.1954 22.34 88.1836 21.8625C87.173 21.4021 86.3527 20.7224 85.7229 19.8233C85.093 18.9241 84.7462 17.902 84.664 16.7411C84.5818 15.5801 84.7801 14.5023 85.277 13.5234C85.774 12.5445 86.4915 11.7731 87.426 11.1579C88.3617 10.5598 89.4533 10.2252 90.6655 10.1394C91.8776 10.0536 93.0055 10.2311 94.0161 10.6915C95.0279 11.169 95.8469 11.8317 96.4768 12.7308C97.1066 13.6299 97.4535 14.652 97.5369 15.83C97.6202 17.0081 97.4208 18.0688 96.9238 19.0477C96.4269 20.0266 95.7094 20.798 94.7737 21.3961C93.8392 22.0113 92.7476 22.346 91.5354 22.4318ZM91.3977 20.4855C92.2001 20.4287 92.9039 20.1901 93.5102 19.7869C94.1165 19.3837 94.5936 18.8523 94.9062 18.1782C95.2201 17.5211 95.3571 16.7907 95.3003 15.9883C95.2435 15.1859 95.005 14.4821 94.6005 13.8588C94.1973 13.2524 93.6489 12.7765 92.9918 12.4627C92.3348 12.1489 91.6056 12.0289 90.8032 12.0857C90.0008 12.1425 89.2958 12.3639 88.6895 12.7672C88.0832 13.1704 87.6072 13.7188 87.2934 14.3759C86.9808 15.05 86.8437 15.7804 86.9005 16.5828C86.9573 17.3852 87.1959 18.089 87.5991 18.6953C88.0035 19.3187 88.5508 19.7776 89.2078 20.0914C89.8649 20.4052 90.5953 20.5422 91.3977 20.4855Z" fill="#02E4C0"/>
<path d="M80.348 23.7197L80.658 11.1018L78.6276 11.7198L78.3631 21.3718L72.7986 13.494L70.8337 14.0921L70.5215 23.705L65.0211 15.8614L62.8106 16.5342L70.098 26.8396L72.374 26.1468L72.6741 16.788L78.0884 24.4074L80.348 23.7197Z" fill="#02E4C0"/>
<path d="M60.0051 29.559L60.9992 31.1377L53.3956 35.9258L47.0115 25.7877L54.4123 21.1272L55.4064 22.7059L49.8884 26.1807L51.5483 28.8166L56.4435 25.734L57.4194 27.2836L52.5241 30.3663L54.2843 33.1615L60.0051 29.559Z" fill="#02E4C0"/>
<path d="M37.7175 35.8801L40.7234 33.2856L47.3215 40.93L49.0058 39.4762L42.4077 31.8318L45.4137 29.2373L44.1835 27.812L36.4873 34.4548L37.7175 35.8801Z" fill="#02E4C0"/>
<path fill-rule="evenodd" clip-rule="evenodd" d="M40.2588 43.9027L36.3458 48.4384L37.6737 51.1438L36.1756 52.8803L30.6259 40.972L32.057 39.3132L44.6614 43.0443L43.1409 44.8067L40.2588 43.9027ZM38.4563 43.3195L33.0149 41.609L35.5159 46.7278L38.4563 43.3195Z" fill="#02E4C0"/>
<path fill-rule="evenodd" clip-rule="evenodd" d="M30.403 55.7411L34.6728 55.478L35.9202 53.4321L31.1246 53.7356C31.2747 52.8648 31.1952 52.0747 30.8715 51.3561C30.5389 50.6522 29.9972 50.0613 29.2227 49.5891C28.4774 49.1347 27.7129 48.9091 26.9583 48.9301C26.2038 48.9512 25.4771 49.1897 24.7839 49.6691C24.0906 50.1485 23.4723 50.8339 22.9288 51.7253L20.3627 55.9339L30.5921 62.1709L31.7504 60.2711L28.7692 58.4535L30.177 56.1446C30.2839 55.9693 30.3641 55.8377 30.403 55.7411ZM26.1583 51.2287C26.7674 51.0187 27.3979 51.1025 28.0555 51.5034C28.7131 51.9044 29.0763 52.4265 29.1686 53.0641C29.2756 53.7107 29.0678 54.446 28.5599 55.2789L27.2056 57.5002L23.1285 55.0143L24.4828 52.7931C24.9907 51.9601 25.5491 51.4386 26.1583 51.2287Z" fill="#02E4C0"/>
<path d="M27.7748 63.7238L29.5048 64.4219L26.1426 72.7547L15.0322 68.2717L18.3047 60.1611L20.0348 60.8592L17.5948 66.9064L20.4835 68.072L22.6481 62.7072L24.3464 63.3925L22.1818 68.7572L25.2451 69.9933L27.7748 63.7238Z" fill="#02E4C0"/>
<path d="M12.483 77.674L11.9494 79.834L23.5806 82.7072L25.6164 74.4656L23.7886 74.0141L22.2864 80.0956L12.483 77.674Z" fill="#02E4C0"/>
<path d="M21.2916 84.9857L23.1491 85.1594L22.3124 94.1059L10.3837 92.9904L11.198 84.2824L13.0555 84.4561L12.4483 90.9487L15.5498 91.2388L16.0885 85.4789L17.9119 85.6494L17.3732 91.4093L20.6621 91.7169L21.2916 84.9857Z" fill="#02E4C0"/>
<path d="M22.1385 104.322C22.6152 103.31 22.7943 102.216 22.7076 101.004C22.6379 100.031 22.4025 99.1385 22.0024 98.3435C21.6036 97.5655 21.0596 96.9181 20.3706 96.4012L19.1075 97.9329C20.1087 98.7364 20.6624 99.7606 20.7528 101.024C20.8115 101.843 20.6762 102.591 20.3641 103.265C20.0521 103.94 19.5936 104.487 18.9876 104.891C18.3816 105.295 17.661 105.535 16.8586 105.592C16.0562 105.65 15.3087 105.515 14.6514 105.201C13.9941 104.888 13.4453 104.412 13.0404 103.789C12.6354 103.166 12.4122 102.444 12.3535 101.625C12.2631 100.362 12.6483 99.2702 13.525 98.3324L12.0737 96.9948C11.4653 97.6046 11.0191 98.3229 10.7351 99.1497C10.451 99.9765 10.3451 100.894 10.4147 101.867C10.5014 103.079 10.8345 104.136 11.4333 105.071C12.0492 106.005 12.8212 106.722 13.8005 107.218C14.7798 107.714 15.8407 107.913 17.0186 107.829C18.1966 107.744 19.2184 107.397 20.117 106.766C21.0169 106.153 21.6789 105.333 22.1385 104.322Z" fill="#02E4C0"/>
<path d="M24.4335 113.011C24.7181 114.193 24.721 115.301 24.417 116.378C24.1297 117.45 23.6112 118.368 22.8243 119.12C22.0414 119.89 21.0905 120.401 19.9424 120.677C18.7943 120.954 17.7151 120.932 16.6677 120.604C15.6202 120.275 14.741 119.694 13.9801 118.874C13.2358 118.05 12.7337 117.062 12.4491 115.881C12.2206 114.932 12.1745 114.01 12.3189 113.148C12.4633 112.286 12.7855 111.504 13.2856 110.802L14.9368 111.883C14.226 112.953 14.0253 114.092 14.3219 115.324C14.5143 116.122 14.8531 116.798 15.3548 117.346C15.8566 117.894 16.476 118.273 17.1758 118.474C17.8757 118.675 18.6352 118.686 19.4173 118.498C20.1993 118.309 20.8708 117.954 21.4022 117.456C21.9337 116.958 22.296 116.343 22.4931 115.626C22.6902 114.91 22.7009 114.15 22.5085 113.352C22.2119 112.12 21.4975 111.201 20.3779 110.573L21.3723 108.854C22.1369 109.251 22.7798 109.801 23.301 110.502C23.8262 111.221 24.205 112.063 24.4335 113.011Z" fill="#02E4C0"/>
<path fill-rule="evenodd" clip-rule="evenodd" d="M27.066 129.639L24.7015 124.135L26.7762 121.94L25.8574 119.802L16.9842 129.5L17.8489 131.513L30.985 131.737L30.0797 129.63L27.066 129.639ZM19.4677 129.644L23.388 125.501L25.1647 129.637L19.4677 129.644Z" fill="#02E4C0"/>
<path d="M30.4524 139.687L34.9062 139.507L36.0099 141.032L32.5752 141.278L35.6655 145.549L34.4037 146.462L31.3134 142.191L30.0197 145.366L28.9161 143.841L30.4524 139.687Z" fill="#02E4C0"/>
<path d="M41.393 147.602L37.0056 148.389L36.0502 152.713L37.3516 154.074L38.2 150.752L41.844 154.561L42.9695 153.484L39.3255 149.675L42.6945 148.963L41.393 147.602Z" fill="#02E4C0"/>
<path d="M48.9695 154.775L44.732 156.157L44.3808 160.572L45.8571 161.741L46.2402 158.333L50.3738 161.605L51.3404 160.383L47.2068 157.112L50.4458 155.943L48.9695 154.775Z" fill="#02E4C0"/>
<path d="M129.48 22.4702L131.04 19.175L136.934 21.9645L137.732 20.2782L129.827 16.5369L124.702 27.3662L126.713 28.318L128.675 24.172L133.904 26.6466L134.709 24.9449L129.48 22.4702Z" fill="#02E4C0"/>
<path d="M141.116 22.1963L142.968 23.43L137.368 31.8335L142.581 35.307L141.537 36.8738L134.473 32.1666L141.116 22.1963Z" fill="#02E4C0"/>
<path fill-rule="evenodd" clip-rule="evenodd" d="M144.964 38.8581C145.314 39.9208 145.961 40.8613 146.858 41.6818C147.754 42.5023 148.748 43.064 149.838 43.3187C150.916 43.586 151.969 43.5757 153.021 43.2627C154.073 42.9496 154.98 42.3644 155.778 41.4932C156.575 40.6221 157.078 39.667 157.297 38.5913C157.516 37.5156 157.433 36.4653 157.083 35.4026C156.722 34.3525 156.074 33.412 155.178 32.5916C154.282 31.7711 153.288 31.2093 152.21 30.942C151.12 30.6874 150.067 30.6976 149.015 31.0107C147.962 31.3237 147.044 31.9216 146.258 32.7801C145.472 33.6386 144.969 34.5937 144.751 35.6694C144.532 36.7452 144.603 37.8081 144.964 38.8581ZM150.136 41.2945C149.426 41.1321 148.769 40.7856 148.175 40.2425C147.582 39.6994 147.179 39.0752 146.954 38.3825C146.73 37.6898 146.686 36.977 146.86 36.2545C147.023 35.5447 147.369 34.8873 147.912 34.2939C148.455 33.7005 149.079 33.2974 149.784 33.0603C150.476 32.8358 151.202 32.8038 151.912 32.9662C152.621 33.1286 153.267 33.4877 153.861 34.0308C154.454 34.574 154.869 35.1856 155.093 35.8783C155.318 36.571 155.35 37.2964 155.187 38.0062C155.013 38.7286 154.667 39.386 154.124 39.9794C153.581 40.5728 152.956 40.976 152.264 41.2004C151.559 41.4375 150.846 41.457 150.136 41.2945Z" fill="#02E4C0"/>
<path d="M173.053 54.86L160.949 58.4374L159.601 56.4979L165.191 49.0065L156.192 51.593L154.834 49.6395L162.405 39.5411L163.724 41.4384L157.947 49.0806L167.192 46.4276L168.364 48.1141L162.574 55.8277L171.842 53.1173L173.053 54.86Z" fill="#02E4C0"/>
<path fill-rule="evenodd" clip-rule="evenodd" d="M173.843 76.0404C174.19 75.5105 174.37 74.9101 174.371 74.2065C174.766 74.5805 175.209 74.8302 175.734 74.9448C176.259 75.0593 176.789 75.0276 177.358 74.8391C178.284 74.5321 178.88 73.9377 179.174 73.0289C179.451 72.1255 179.372 71.0158 178.925 69.6674L177.158 64.3388L165.786 68.109L167.66 73.7626C168.14 75.2085 168.782 76.2216 169.571 76.8074C170.361 77.3933 171.232 77.5192 172.223 77.1906C172.938 76.9536 173.48 76.5756 173.843 76.0404ZM173.066 68.0396L176.201 67.0001L177.192 69.9894C177.435 70.7204 177.493 71.3321 177.368 71.8244C177.221 72.3059 176.896 72.6301 176.376 72.8025C175.872 72.9695 175.418 72.9038 175.029 72.6C174.618 72.2855 174.299 71.7599 174.057 71.0289L173.066 68.0396ZM171.729 74.9924C170.64 75.3533 169.818 74.7241 169.274 73.0832L168.143 69.6716L171.425 68.5836L172.556 71.9953C173.1 73.6361 172.817 74.6315 171.729 74.9924Z" fill="#02E4C0"/>
<path d="M174.571 84.7158L170.401 85.4099L170.036 83.2151L174.172 82.5266L181.081 76.6052L181.472 78.9519L176.291 83.3712L182.629 85.9077L182.989 88.0688L174.571 84.7158Z" fill="#02E4C0"/>
<path d="M177.372 103.136C178.055 102.359 178.431 101.124 178.501 99.4308L178.548 98.285L181.308 98.6555L181.096 103.803L182.96 103.88L183.249 96.8512L176.759 95.9674L176.64 98.8574C176.591 100.037 176.404 100.852 176.075 101.335C175.731 101.801 175.259 102.021 174.644 101.996C174.079 101.972 173.644 101.732 173.337 101.274C173.031 100.799 172.886 100.176 172.918 99.3895C172.945 98.7225 173.074 98.094 173.322 97.4875C173.553 96.8632 173.865 96.3451 174.243 95.9152L172.554 94.9036C172.104 95.4332 171.735 96.0861 171.462 96.88C171.173 97.6732 171.019 98.4891 170.984 99.3441C170.941 100.387 171.076 101.266 171.39 101.982C171.703 102.697 172.143 103.246 172.709 103.629C173.276 104.012 173.919 104.21 174.637 104.239C175.766 104.286 176.672 103.912 177.372 103.136Z" fill="#02E4C0"/>
<path fill-rule="evenodd" clip-rule="evenodd" d="M169.749 110.249C169.926 109.307 170.32 108.51 170.948 107.862C171.558 107.211 172.359 106.752 173.363 106.506C174.351 106.257 175.468 106.241 176.73 106.479C177.991 106.717 179.026 107.139 179.872 107.733C180.701 108.325 181.28 109.044 181.628 109.876C181.959 110.705 182.036 111.59 181.859 112.532C181.681 113.474 181.287 114.27 180.673 114.938C180.046 115.586 179.246 116.045 178.258 116.294C177.254 116.54 176.136 116.556 174.875 116.318C173.613 116.081 172.578 115.659 171.749 115.067C170.903 114.472 170.325 113.754 169.993 112.925C169.648 112.076 169.571 111.191 169.749 110.249ZM171.649 110.607C171.491 111.448 171.717 112.188 172.315 112.805C172.913 113.423 173.911 113.855 175.29 114.115C176.669 114.375 177.756 114.336 178.538 113.978C179.319 113.621 179.8 113.014 179.958 112.174C180.113 111.349 179.884 110.627 179.286 110.009C178.689 109.391 177.693 108.942 176.314 108.682C174.935 108.422 173.845 108.478 173.063 108.836C172.282 109.194 171.805 109.783 171.649 110.607Z" fill="#02E4C0"/>
<path fill-rule="evenodd" clip-rule="evenodd" d="M174.518 119.545C173.77 119.829 173.239 120.36 172.936 121.16C172.633 121.961 172.672 122.726 173.045 123.434C173.417 124.143 174.063 124.662 174.991 125.013C175.919 125.365 176.747 125.403 177.511 125.125C178.243 124.835 178.779 124.288 179.082 123.488C179.385 122.687 179.34 121.938 178.967 121.23C178.595 120.521 177.934 119.996 177.021 119.651C176.109 119.306 175.266 119.261 174.518 119.545ZM174.181 122.803C173.935 122.436 173.893 122.017 174.056 121.585C174.214 121.168 174.517 120.899 174.96 120.792C175.393 120.663 175.922 120.717 176.53 120.948C177.139 121.178 177.57 121.488 177.825 121.877C178.071 122.245 178.12 122.647 177.962 123.063C177.798 123.496 177.489 123.781 177.062 123.894C176.635 124.007 176.112 123.937 175.488 123.701C174.864 123.464 174.426 123.17 174.181 122.803Z" fill="#02E4C0"/>
<path d="M175.831 131.737L176.425 130.168L168.117 118.274L167.523 119.843L175.831 131.737Z" fill="#02E4C0"/>
<path fill-rule="evenodd" clip-rule="evenodd" d="M166.454 124.892C165.706 125.176 165.175 125.707 164.872 126.507C164.569 127.308 164.615 128.057 164.981 128.781C165.353 129.49 166.015 130.015 166.927 130.36C167.839 130.705 168.683 130.75 169.431 130.466C170.185 130.166 170.715 129.635 171.018 128.835C171.321 128.034 171.276 127.285 170.903 126.577C170.531 125.868 169.87 125.343 168.957 124.998C168.045 124.652 167.202 124.608 166.454 124.892ZM166.139 128.14C165.878 127.766 165.829 127.364 165.992 126.932C166.156 126.499 166.459 126.23 166.886 126.117C167.313 126.004 167.842 126.058 168.466 126.294C169.091 126.531 169.522 126.841 169.768 127.208C170.013 127.575 170.062 127.978 169.898 128.41C169.734 128.843 169.431 129.112 169.004 129.225C168.561 129.332 168.032 129.278 167.424 129.047C166.816 128.817 166.384 128.507 166.139 128.14Z" fill="#02E4C0"/>
<path d="M160.306 143.838L158.601 139.72L159.652 138.158L161.067 141.297L164.01 136.923L165.302 137.793L162.359 142.166L165.786 142.286L164.735 143.848L160.306 143.838Z" fill="#02E4C0"/>
<path d="M152.055 147.809L153.176 152.123L157.562 152.743L158.818 151.341L155.44 150.75L158.958 146.824L157.799 145.785L154.28 149.711L153.312 146.406L152.055 147.809Z" fill="#02E4C0"/>
<path d="M144.985 159.322L144.465 154.895L145.902 153.678L146.409 157.084L150.432 153.677L151.438 154.865L147.416 158.272L150.681 159.32L149.244 160.537L144.985 159.322Z" fill="#02E4C0"/>
<path d="M108.558 172.831C107.796 172.234 106.956 171.991 106.021 172.104C105.036 172.223 104.242 172.647 103.645 173.409C103.029 174.155 102.787 175.012 102.905 175.981C103.022 176.949 103.463 177.741 104.224 178.338C104.986 178.935 105.843 179.177 106.795 179.061C107.763 178.944 108.538 178.506 109.135 177.744C109.749 176.98 109.99 176.123 109.873 175.155C109.758 174.203 109.32 173.429 108.558 172.831Z" fill="#02E4C0"/>
<path d="M95.9001 172.641C96.8414 172.654 97.6411 173.007 98.3163 173.701C98.9916 174.395 99.3227 175.221 99.3097 176.179C99.2965 177.155 98.9431 177.972 98.2321 178.647C97.5383 179.322 96.7122 179.653 95.7367 179.64C94.7783 179.627 93.9615 179.274 93.2862 178.58C92.611 177.886 92.2801 177.043 92.2933 176.067C92.3065 175.092 92.66 174.275 93.3707 173.617C94.0645 172.942 94.9075 172.628 95.9001 172.641Z" fill="#02E4C0"/>
<path d="M88.053 173.214C87.4755 172.437 86.7296 171.981 85.7983 171.844C84.8162 171.699 83.9391 171.899 83.162 172.476C82.3704 173.034 81.912 173.797 81.7698 174.762C81.6276 175.727 81.844 176.607 82.4215 177.384C82.999 178.161 83.7619 178.62 84.7101 178.759C85.6752 178.902 86.5379 178.683 87.315 178.105C88.109 177.53 88.5675 176.767 88.7097 175.802C88.8494 174.854 88.6305 173.991 88.053 173.214Z" fill="#02E4C0"/>
<path d="M96.2749 162.653C132.938 162.653 162.659 132.932 162.659 96.2689C162.659 59.6062 132.938 29.8853 96.2749 29.8853C59.6122 29.8853 29.8912 59.6062 29.8912 96.2689C29.8912 132.932 59.6122 162.653 96.2749 162.653Z" stroke="#4452FE" stroke-width="2" stroke-miterlimit="1.5" stroke-linecap="round" stroke-linejoin="round"/>
<path d="M96.276 191.511C148.87 191.511 191.505 148.876 191.505 96.2819C191.505 43.6881 148.87 1.05237 96.276 1.05237C43.6822 1.05237 1.04651 43.6881 1.04651 96.2819C1.04651 148.876 43.6822 191.511 96.276 191.511Z" stroke="#4452FE" stroke-width="2" stroke-miterlimit="1.5" stroke-linecap="round" stroke-linejoin="round"/>
<path d="M97.3118 60.8171L108.188 82.9742L132.511 86.5491L114.911 103.786L119.065 128.138L97.3118 116.635L75.5587 128.138L79.7122 103.786L62.1127 86.5491L86.4352 82.9742L97.3118 60.8171Z" fill="#181818" stroke="white" stroke-width="2" stroke-linecap="round" stroke-linejoin="round"/>
</svg>
