<svg width="30" height="31" viewBox="0 0 30 31" fill="none" xmlns="http://www.w3.org/2000/svg">
<path d="M27.92 3H3.08C2.48263 3 2 3.48263 2 4.08V28.92C2 29.5174 2.48263 30 3.08 30H27.92C28.5174 30 29 29.5174 29 28.92V4.08C29 3.48263 28.5174 3 27.92 3ZM24.8015 10.8806H22.6449C20.954 10.8806 20.6266 11.6839 20.6266 12.8651V15.4672H24.6631L24.1366 19.5409H20.6266V30H16.418V19.5443H12.8979V15.4672H16.418V12.4635C16.418 8.97712 18.5476 7.077 21.6594 7.077C23.1511 7.077 24.4303 7.18838 24.8049 7.239V10.8806H24.8015Z" fill="white"/>
</svg>
