<svg width="30" height="31" viewBox="0 0 30 31" fill="none" xmlns="http://www.w3.org/2000/svg">
<path d="M27.92 3H3.08C2.48263 3 2 3.48263 2 4.08V28.92C2 29.5174 2.48263 30 3.08 30H27.92C28.5174 30 29 29.5174 29 28.92V4.08C29 3.48263 28.5174 3 27.92 3ZM10.0089 26.0074H6.00275V13.1216H10.0089V26.0074ZM8.0075 11.3599C7.54825 11.3599 7.09932 11.2237 6.71747 10.9685C6.33562 10.7134 6.038 10.3508 5.86225 9.92647C5.68651 9.50218 5.64052 9.0353 5.73012 8.58488C5.81971 8.13445 6.04086 7.72071 6.3656 7.39597C6.69034 7.07124 7.10408 6.85009 7.5545 6.76049C8.00492 6.6709 8.4718 6.71688 8.89609 6.89263C9.32038 7.06837 9.68303 7.36599 9.93817 7.74784C10.1933 8.12969 10.3295 8.57863 10.3295 9.03788C10.3261 10.3204 9.28663 11.3599 8.0075 11.3599ZM25.0074 26.0074H21.0046V19.74C21.0046 18.2449 20.9776 16.3245 18.9223 16.3245C16.8399 16.3245 16.5193 17.9513 16.5193 19.632V26.0074H12.5199V13.1216H16.3606V14.8834H16.4146C16.9479 13.8709 18.254 12.801 20.2048 12.801C24.2615 12.801 25.0074 15.4706 25.0074 18.9401V26.0074Z" fill="white"/>
</svg>
