<svg width="30" height="31" viewBox="0 0 30 31" fill="none" xmlns="http://www.w3.org/2000/svg">
<path d="M15 19C18.309 19 21 16.5332 21 13.5C21 10.4667 18.309 8 15 8C11.691 8 9 10.4667 9 13.5C9 16.5332 11.691 19 15 19ZM15 10.75C16.6545 10.75 18 11.9834 18 13.5C18 15.0166 16.6545 16.25 15 16.25C13.3455 16.25 12 15.0166 12 13.5C12 11.9834 13.3455 10.75 15 10.75Z" fill="#02E4C0"/>
<path d="M14.2025 29.7398C14.4352 29.909 14.714 30 15 30C15.286 30 15.5648 29.909 15.7975 29.7398C16.2155 29.4388 26.0398 22.2162 25.9999 13.2001C25.9999 7.02464 21.0651 2 15 2C8.93494 2 4.00012 7.02464 4.00012 13.1931C3.96025 22.2162 13.7845 29.4388 14.2025 29.7398ZM15 4.80002C19.5498 4.80002 23.2499 8.56745 23.2499 13.2071C23.2788 19.4203 17.2165 24.9994 15 26.8292C12.7849 24.998 6.72122 19.4175 6.75009 13.2001C6.75009 8.56745 10.4502 4.80002 15 4.80002Z" fill="#02E4C0"/>
</svg>
