<svg width="30" height="31" viewBox="0 0 30 31" fill="none" xmlns="http://www.w3.org/2000/svg">
<path d="M29 7.61333C28.0071 8.04291 26.9266 8.35208 25.8136 8.4725C26.9691 7.78397 27.8344 6.69622 28.2472 5.41333C27.1629 6.06027 25.975 6.51392 24.7363 6.75415C24.2186 6.19903 23.5924 5.7568 22.8969 5.45501C22.2013 5.15322 21.4512 4.99833 20.6933 5.00001C17.627 5.00001 15.1609 7.49291 15.1609 10.5521C15.1609 10.9817 15.2128 11.4113 15.2972 11.8246C10.7058 11.5837 6.61086 9.38374 3.88848 6.0154C3.39243 6.86518 3.13248 7.83276 3.13568 8.81747C3.13568 10.7441 4.11237 12.4429 5.60173 13.442C4.72403 13.4074 3.86687 13.1654 3.09999 12.7358V12.8042C3.09999 15.5021 5.00144 17.7379 7.53563 18.2521C7.05981 18.376 6.57033 18.4395 6.07872 18.4408C5.71854 18.4408 5.37784 18.405 5.03389 18.3562C5.73477 20.5562 7.77575 22.1541 10.2061 22.2062C8.30465 23.7 5.92297 24.5787 3.33686 24.5787C2.87285 24.5787 2.44454 24.5624 2 24.5104C4.45307 26.0888 7.36366 27 10.4981 27C20.6738 27 26.2419 18.545 26.2419 11.2062C26.2419 10.9654 26.2419 10.7246 26.2257 10.4837C27.303 9.69291 28.2472 8.71333 29 7.61333Z" fill="white"/>
</svg>
